<?xml version="1.0" encoding="UTF-8" standalone="no"?><!DOCTYPE svg PUBLIC "-//W3C//DTD SVG 1.1//EN" "http://www.w3.org/Graphics/SVG/1.1/DTD/svg11.dtd"><svg width="100%" height="100%" viewBox="0 0 1000 971" version="1.1" xmlns="http://www.w3.org/2000/svg" xmlns:xlink="http://www.w3.org/1999/xlink" xml:space="preserve" xmlns:serif="http://www.serif.com/" style="fill-rule:evenodd;clip-rule:evenodd;stroke-linejoin:round;stroke-miterlimit:2;"><g><g><path d="M163.029,375.332l43.885,-84.432l42.401,84.432l-86.286,0Z" style="fill:#ff8904;fill-rule:nonzero;"/><path d="M288.988,375.332l44.88,0l-84.177,-168.984l-23.932,43.516l63.229,125.469Z" style="fill:#ff8904;fill-rule:nonzero;"/><g><g><g><path d="M458.915,206.196l-43.885,84.427l-42.401,-84.427l86.286,0Z" style="fill:#ff8904;fill-rule:nonzero;"/><path d="M332.951,206.196l-44.88,0l84.182,168.979l23.927,-43.516l-63.229,-125.464Z" style="fill:#ff8904;fill-rule:nonzero;"/></g></g></g><path d="M413.425,375.332l43.885,-84.432l42.401,84.432l-86.286,0Z" style="fill:#ff8904;fill-rule:nonzero;"/><path d="M539.384,375.332l44.88,0l-84.182,-168.984l-23.927,43.516l63.229,125.469Z" style="fill:#ff8904;fill-rule:nonzero;"/><g><g><g><path d="M709.311,206.196l-43.891,84.427l-42.396,-84.427l86.286,0Z" style="fill:#ff8904;fill-rule:nonzero;"/><path d="M583.347,206.196l-44.88,0l84.182,168.979l23.927,-43.516l-63.229,-125.464Z" style="fill:#ff8904;fill-rule:nonzero;"/></g></g></g><path d="M663.816,375.332l43.891,-84.432l42.401,84.432l-86.292,0Z" style="fill:#ff8904;fill-rule:nonzero;"/><path d="M789.779,375.332l44.88,0l-84.182,-168.984l-23.927,43.516l63.229,125.469Z" style="fill:#ff8904;fill-rule:nonzero;"/><g><g><g><path d="M959.706,206.196l-43.891,84.427l-42.401,-84.427l86.292,0Z" style="fill:#ff8904;fill-rule:nonzero;"/><path d="M833.743,206.196l-44.88,0l84.182,168.979l23.927,-43.516l-63.229,-125.464Z" style="fill:#ff8904;fill-rule:nonzero;"/></g></g></g><g><g><g><path d="M208.519,206.196l-43.885,84.427l-42.401,-84.427l86.286,0Z" style="fill:#ff8904;fill-rule:nonzero;"/><path d="M82.555,206.196l-44.88,0l84.182,168.979l23.927,-43.516l-63.229,-125.464Z" style="fill:#ff8904;fill-rule:nonzero;"/></g></g></g><g><clipPath id="_clip1"><rect x="-0.08" y="206.373" width="84" height="169.333"/></clipPath><g clip-path="url(#_clip1)"><path d="M38.831,375.353l44.88,0l-84.182,-168.979l-23.927,43.516l63.229,125.464Z" style="fill:#ff8904;fill-rule:nonzero;"/></g></g><g><clipPath id="_clip2"><rect x="913.253" y="290.373" width="86.667" height="85.333"/></clipPath><g clip-path="url(#_clip2)"><path d="M914.128,375.332l43.885,-84.432l42.401,84.432l-86.286,0Z" style="fill:#ff8904;fill-rule:nonzero;"/></g></g><g><clipPath id="_clip3"><rect x="975.92" y="205.04" width="24" height="170.667"/></clipPath><g clip-path="url(#_clip3)"><path d="M1040.087,375.332l44.88,0l-84.182,-168.984l-23.927,43.516l63.229,125.469Z" style="fill:#ff8904;fill-rule:nonzero;"/></g></g></g></g><g><g><path d="M163.029,569.493l43.885,-84.427l42.401,84.427l-86.286,0Z" style="fill:#ff8904;fill-rule:nonzero;"/><path d="M288.988,569.493l44.88,0l-84.177,-168.984l-23.932,43.521l63.229,125.464Z" style="fill:#ff8904;fill-rule:nonzero;"/><g><g><g><path d="M458.915,400.358l-43.885,84.432l-42.401,-84.432l86.286,0Z" style="fill:#ff8904;fill-rule:nonzero;"/><path d="M332.951,400.358l-44.88,0l84.182,168.984l23.927,-43.516l-63.229,-125.469Z" style="fill:#ff8904;fill-rule:nonzero;"/></g></g></g><path d="M413.425,569.493l43.885,-84.427l42.401,84.427l-86.286,0Z" style="fill:#ff8904;fill-rule:nonzero;"/><path d="M539.384,569.493l44.88,0l-84.182,-168.984l-23.927,43.521l63.229,125.464Z" style="fill:#ff8904;fill-rule:nonzero;"/><g><g><g><path d="M709.311,400.358l-43.891,84.432l-42.396,-84.432l86.286,0Z" style="fill:#ff8904;fill-rule:nonzero;"/><path d="M583.347,400.358l-44.88,0l84.182,168.984l23.927,-43.516l-63.229,-125.469Z" style="fill:#ff8904;fill-rule:nonzero;"/></g></g></g><path d="M663.816,569.493l43.891,-84.427l42.401,84.427l-86.292,0Z" style="fill:#ff8904;fill-rule:nonzero;"/><path d="M789.779,569.493l44.88,0l-84.182,-168.984l-23.927,43.521l63.229,125.464Z" style="fill:#ff8904;fill-rule:nonzero;"/><g><g><g><path d="M959.706,400.358l-43.891,84.432l-42.401,-84.432l86.292,0Z" style="fill:#ff8904;fill-rule:nonzero;"/><path d="M833.743,400.358l-44.88,0l84.182,168.984l23.927,-43.516l-63.229,-125.469Z" style="fill:#ff8904;fill-rule:nonzero;"/></g></g></g><g><g><g><path d="M208.519,400.358l-43.885,84.432l-42.401,-84.432l86.286,0Z" style="fill:#ff8904;fill-rule:nonzero;"/><path d="M82.555,400.358l-44.88,0l84.182,168.984l23.927,-43.516l-63.229,-125.469Z" style="fill:#ff8904;fill-rule:nonzero;"/></g></g></g><g><clipPath id="_clip4"><rect x="-0.08" y="399.707" width="84" height="170.667"/></clipPath><g clip-path="url(#_clip4)"><path d="M38.831,569.519l44.88,0l-84.182,-168.984l-23.927,43.516l63.229,125.469Z" style="fill:#ff8904;fill-rule:nonzero;"/></g></g><g><clipPath id="_clip5"><rect x="913.253" y="485.04" width="86.667" height="85.333"/></clipPath><g clip-path="url(#_clip5)"><path d="M914.128,569.493l43.885,-84.427l42.401,84.427l-86.286,0Z" style="fill:#ff8904;fill-rule:nonzero;"/></g></g><g><clipPath id="_clip6"><rect x="975.92" y="399.707" width="24" height="170.667"/></clipPath><g clip-path="url(#_clip6)"><path d="M1040.087,569.493l44.88,0l-84.182,-168.984l-23.927,43.521l63.229,125.464Z" style="fill:#ff8904;fill-rule:nonzero;"/></g></g></g></g><g><g><path d="M163.029,763.66l43.885,-84.432l42.401,84.432l-86.286,0Z" style="fill:#ff8904;fill-rule:nonzero;"/><path d="M288.988,763.66l44.88,0l-84.177,-168.984l-23.932,43.516l63.229,125.469Z" style="fill:#ff8904;fill-rule:nonzero;"/><g><g><g><path d="M458.915,594.524l-43.885,84.427l-42.401,-84.427l86.286,0Z" style="fill:#ff8904;fill-rule:nonzero;"/><path d="M332.951,594.524l-44.88,0l84.182,168.979l23.927,-43.516l-63.229,-125.464Z" style="fill:#ff8904;fill-rule:nonzero;"/></g></g></g><path d="M413.425,763.66l43.885,-84.432l42.401,84.432l-86.286,0Z" style="fill:#ff8904;fill-rule:nonzero;"/><path d="M539.384,763.66l44.88,0l-84.182,-168.984l-23.927,43.516l63.229,125.469Z" style="fill:#ff8904;fill-rule:nonzero;"/><g><g><g><path d="M709.311,594.524l-43.891,84.427l-42.396,-84.427l86.286,0Z" style="fill:#ff8904;fill-rule:nonzero;"/><path d="M583.347,594.524l-44.88,0l84.182,168.979l23.927,-43.516l-63.229,-125.464Z" style="fill:#ff8904;fill-rule:nonzero;"/></g></g></g><path d="M663.816,763.66l43.891,-84.432l42.401,84.432l-86.292,0Z" style="fill:#ff8904;fill-rule:nonzero;"/><path d="M789.779,763.66l44.88,0l-84.182,-168.984l-23.927,43.516l63.229,125.469Z" style="fill:#ff8904;fill-rule:nonzero;"/><g><g><g><path d="M959.706,594.524l-43.891,84.427l-42.401,-84.427l86.292,0Z" style="fill:#ff8904;fill-rule:nonzero;"/><path d="M833.743,594.524l-44.88,0l84.182,168.979l23.927,-43.516l-63.229,-125.464Z" style="fill:#ff8904;fill-rule:nonzero;"/></g></g></g><g><g><g><path d="M208.519,594.524l-43.885,84.427l-42.401,-84.427l86.286,0Z" style="fill:#ff8904;fill-rule:nonzero;"/><path d="M82.555,594.524l-44.88,0l84.182,168.979l23.927,-43.516l-63.229,-125.464Z" style="fill:#ff8904;fill-rule:nonzero;"/></g></g></g><g><clipPath id="_clip7"><rect x="-0.08" y="594.373" width="84" height="169.333"/></clipPath><g clip-path="url(#_clip7)"><path d="M38.831,763.681l44.88,0l-84.182,-168.979l-23.927,43.516l63.229,125.464Z" style="fill:#ff8904;fill-rule:nonzero;"/></g></g><g><clipPath id="_clip8"><rect x="913.253" y="678.373" width="86.667" height="85.333"/></clipPath><g clip-path="url(#_clip8)"><path d="M914.128,763.66l43.885,-84.432l42.401,84.432l-86.286,0Z" style="fill:#ff8904;fill-rule:nonzero;"/></g></g><g><clipPath id="_clip9"><rect x="975.92" y="594.373" width="24" height="169.333"/></clipPath><g clip-path="url(#_clip9)"><path d="M1040.087,763.66l44.88,0l-84.182,-168.984l-23.927,43.516l63.229,125.469Z" style="fill:#ff8904;fill-rule:nonzero;"/></g></g></g></g><g><g><path d="M163.029,181.165l43.885,-84.427l42.401,84.427l-86.286,0Z" style="fill:#ff8904;fill-rule:nonzero;"/><path d="M288.988,181.165l44.88,0l-84.177,-168.979l-23.932,43.516l63.229,125.464Z" style="fill:#ff8904;fill-rule:nonzero;"/><g><g><g><path d="M458.915,12.03l-43.885,84.432l-42.401,-84.432l86.286,0Z" style="fill:#ff8904;fill-rule:nonzero;"/><path d="M332.951,12.03l-44.88,0l84.182,168.984l23.927,-43.516l-63.229,-125.469Z" style="fill:#ff8904;fill-rule:nonzero;"/></g></g></g><path d="M413.425,181.165l43.885,-84.427l42.401,84.427l-86.286,0Z" style="fill:#ff8904;fill-rule:nonzero;"/><path d="M539.384,181.165l44.88,0l-84.182,-168.979l-23.927,43.516l63.229,125.464Z" style="fill:#ff8904;fill-rule:nonzero;"/><g><g><g><path d="M709.311,12.03l-43.891,84.432l-42.396,-84.432l86.286,0Z" style="fill:#ff8904;fill-rule:nonzero;"/><path d="M583.347,12.03l-44.88,0l84.182,168.984l23.927,-43.516l-63.229,-125.469Z" style="fill:#ff8904;fill-rule:nonzero;"/></g></g></g><path d="M663.816,181.165l43.891,-84.427l42.401,84.427l-86.292,0Z" style="fill:#ff8904;fill-rule:nonzero;"/><path d="M789.779,181.165l44.88,0l-84.182,-168.979l-23.927,43.516l63.229,125.464Z" style="fill:#ff8904;fill-rule:nonzero;"/><g><g><g><path d="M959.706,12.03l-43.891,84.432l-42.401,-84.432l86.292,0Z" style="fill:#ff8904;fill-rule:nonzero;"/><path d="M833.743,12.03l-44.88,0l84.182,168.984l23.927,-43.516l-63.229,-125.469Z" style="fill:#ff8904;fill-rule:nonzero;"/></g></g></g><g><g><g><path d="M208.519,12.03l-43.885,84.432l-42.401,-84.432l86.286,0Z" style="fill:#ff8904;fill-rule:nonzero;"/><path d="M82.555,12.03l-44.88,0l84.182,168.984l23.927,-43.516l-63.229,-125.469Z" style="fill:#ff8904;fill-rule:nonzero;"/></g></g></g><g><clipPath id="_clip10"><rect x="-0.08" y="11.707" width="84" height="170.667"/></clipPath><g clip-path="url(#_clip10)"><path d="M38.831,181.191l44.88,0l-84.182,-168.984l-23.927,43.516l63.229,125.469Z" style="fill:#ff8904;fill-rule:nonzero;"/></g></g><g><clipPath id="_clip11"><rect x="913.253" y="95.707" width="86.667" height="86.667"/></clipPath><g clip-path="url(#_clip11)"><path d="M914.128,181.165l43.885,-84.427l42.401,84.427l-86.286,0Z" style="fill:#ff8904;fill-rule:nonzero;"/></g></g><g><clipPath id="_clip12"><rect x="975.92" y="11.707" width="24" height="170.667"/></clipPath><g clip-path="url(#_clip12)"><path d="M1040.087,181.165l44.88,0l-84.182,-168.979l-23.927,43.516l63.229,125.464Z" style="fill:#ff8904;fill-rule:nonzero;"/></g></g></g></g><g><g><path d="M163.029,957.821l43.885,-84.427l42.401,84.427l-86.286,0Z" style="fill:#ff8904;fill-rule:nonzero;"/><path d="M288.988,957.821l44.88,0l-84.177,-168.984l-23.932,43.521l63.229,125.464Z" style="fill:#ff8904;fill-rule:nonzero;"/><g><g><g><path d="M458.915,788.686l-43.885,84.432l-42.401,-84.432l86.286,0Z" style="fill:#ff8904;fill-rule:nonzero;"/><path d="M332.951,788.686l-44.88,0l84.182,168.984l23.927,-43.516l-63.229,-125.469Z" style="fill:#ff8904;fill-rule:nonzero;"/></g></g></g><path d="M413.425,957.821l43.885,-84.427l42.401,84.427l-86.286,0Z" style="fill:#ff8904;fill-rule:nonzero;"/><path d="M539.384,957.821l44.88,0l-84.182,-168.984l-23.927,43.521l63.229,125.464Z" style="fill:#ff8904;fill-rule:nonzero;"/><g><g><g><path d="M709.311,788.686l-43.891,84.432l-42.396,-84.432l86.286,0Z" style="fill:#ff8904;fill-rule:nonzero;"/><path d="M583.347,788.686l-44.88,0l84.182,168.984l23.927,-43.516l-63.229,-125.469Z" style="fill:#ff8904;fill-rule:nonzero;"/></g></g></g><path d="M663.816,957.821l43.891,-84.427l42.401,84.427l-86.292,0Z" style="fill:#ff8904;fill-rule:nonzero;"/><path d="M789.779,957.821l44.88,0l-84.182,-168.984l-23.927,43.521l63.229,125.464Z" style="fill:#ff8904;fill-rule:nonzero;"/><g><g><g><path d="M959.706,788.686l-43.891,84.432l-42.401,-84.432l86.292,0Z" style="fill:#ff8904;fill-rule:nonzero;"/><path d="M833.743,788.686l-44.88,0l84.182,168.984l23.927,-43.516l-63.229,-125.469Z" style="fill:#ff8904;fill-rule:nonzero;"/></g></g></g><g><g><g><path d="M208.519,788.686l-43.885,84.432l-42.401,-84.432l86.286,0Z" style="fill:#ff8904;fill-rule:nonzero;"/><path d="M82.555,788.686l-44.88,0l84.182,168.984l23.927,-43.516l-63.229,-125.469Z" style="fill:#ff8904;fill-rule:nonzero;"/></g></g></g><g><clipPath id="_clip13"><rect x="-0.08" y="787.707" width="84" height="170.667"/></clipPath><g clip-path="url(#_clip13)"><path d="M38.831,957.847l44.88,0l-84.182,-168.984l-23.927,43.516l63.229,125.469Z" style="fill:#ff8904;fill-rule:nonzero;"/></g></g><g><clipPath id="_clip14"><rect x="913.253" y="873.04" width="86.667" height="85.333"/></clipPath><g clip-path="url(#_clip14)"><path d="M914.128,957.821l43.885,-84.427l42.401,84.427l-86.286,0Z" style="fill:#ff8904;fill-rule:nonzero;"/></g></g><g><clipPath id="_clip15"><rect x="975.92" y="787.707" width="24" height="170.667"/></clipPath><g clip-path="url(#_clip15)"><path d="M1040.087,957.821l44.88,0l-84.182,-168.984l-23.927,43.521l63.229,125.464Z" style="fill:#ff8904;fill-rule:nonzero;"/></g></g></g></g></svg>