<svg width="535" height="519" viewBox="0 0 535 519" fill="none" xmlns="http://www.w3.org/2000/svg">
<g clip-path="url(#clip0_90_1193)">
<path d="M87.2207 200.615L110.699 155.486L133.384 200.615H87.2207Z" fill="#2C3E50"/>
<path d="M154.609 200.615H178.62L133.585 110.293L120.781 133.552L154.609 200.616V200.615Z" fill="#2C3E50"/>
<path d="M245.518 110.212L222.04 155.338L199.355 110.212H245.518Z" fill="#2C3E50"/>
<path d="M178.128 110.211H154.117L199.155 200.531L211.955 177.271L178.128 110.211Z" fill="#2C3E50"/>
<path d="M221.182 200.615L244.66 155.486L267.345 200.615H221.182Z" fill="#2C3E50"/>
<path d="M288.57 200.615H312.58L267.543 110.293L254.742 133.552L288.57 200.616V200.615Z" fill="#2C3E50"/>
<path d="M379.482 110.212L356 155.338L333.318 110.212H379.482Z" fill="#2C3E50"/>
<path d="M312.091 110.211H288.08L333.117 200.531L345.918 177.271L312.091 110.211Z" fill="#2C3E50"/>
<path d="M355.141 200.615L378.622 155.486L401.307 200.615H355.141Z" fill="#2C3E50"/>
<path d="M422.531 200.615H446.541L401.504 110.293L388.703 133.552L422.531 200.616V200.615Z" fill="#2C3E50"/>
<path d="M513.442 110.212L489.96 155.338L467.275 110.212H513.442Z" fill="#2C3E50"/>
<path d="M446.052 110.211H422.041L467.078 200.531L479.879 177.271L446.052 110.211Z" fill="#2C3E50"/>
<path d="M111.558 110.212L88.0791 155.338L65.3945 110.212H111.558Z" fill="#2C3E50"/>
<path d="M44.167 110.211H20.1562L65.1936 200.531L77.9946 177.271L44.167 110.211Z" fill="#2C3E50"/>
<mask id="mask0_90_1193" style="mask-type:luminance" maskUnits="userSpaceOnUse" x="-1" y="110" width="46" height="91">
<path d="M44.897 110.307H-0.0429688V200.815H44.897V110.307Z" fill="white"/>
</mask>
<g mask="url(#mask0_90_1193)">
<path d="M20.7748 200.627H44.7856L-0.251789 110.308L-13.0527 133.567L20.7748 200.628V200.627Z" fill="#2C3E50"/>
</g>
<mask id="mask1_90_1193" style="mask-type:luminance" maskUnits="userSpaceOnUse" x="488" y="155" width="47" height="46">
<path d="M534.957 155.204H488.59V200.815H534.957V155.204Z" fill="white"/>
</mask>
<g mask="url(#mask1_90_1193)">
<path d="M489.059 200.614L512.537 155.485L535.222 200.614H489.059Z" fill="#2C3E50"/>
</g>
<mask id="mask2_90_1193" style="mask-type:luminance" maskUnits="userSpaceOnUse" x="522" y="109" width="13" height="92">
<path d="M534.957 109.594H522.117V200.815H534.957V109.594Z" fill="white"/>
</mask>
<g mask="url(#mask2_90_1193)">
<path d="M556.447 200.615H580.457L535.42 110.293L522.619 133.552L556.447 200.616V200.615Z" fill="#2C3E50"/>
</g>
<path d="M87.2207 304.394L110.699 259.268L133.384 304.394H87.2207Z" fill="#2C3E50"/>
<path d="M154.609 304.394H178.62L133.585 214.072L120.781 237.334L154.609 304.395V304.394Z" fill="#2C3E50"/>
<path d="M245.518 213.992L222.04 259.121L199.355 213.992H245.518Z" fill="#2C3E50"/>
<path d="M178.128 213.992H154.117L199.155 304.314L211.955 281.054L178.128 213.991V213.992Z" fill="#2C3E50"/>
<path d="M221.182 304.394L244.66 259.268L267.345 304.394H221.182Z" fill="#2C3E50"/>
<path d="M288.57 304.394H312.58L267.543 214.072L254.742 237.334L288.57 304.395V304.394Z" fill="#2C3E50"/>
<path d="M379.482 213.992L356 259.121L333.318 213.992H379.482Z" fill="#2C3E50"/>
<path d="M312.091 213.992H288.08L333.117 304.314L345.918 281.054L312.091 213.991V213.992Z" fill="#2C3E50"/>
<path d="M355.141 304.394L378.622 259.268L401.307 304.394H355.141Z" fill="#2C3E50"/>
<path d="M422.531 304.394H446.541L401.504 214.072L388.703 237.334L422.531 304.395V304.394Z" fill="#2C3E50"/>
<path d="M513.442 213.992L489.96 259.121L467.275 213.992H513.442Z" fill="#2C3E50"/>
<path d="M446.052 213.992H422.041L467.078 304.314L479.879 281.054L446.052 213.991V213.992Z" fill="#2C3E50"/>
<path d="M111.558 213.992L88.0791 259.121L65.3945 213.992H111.558Z" fill="#2C3E50"/>
<path d="M44.167 213.992H20.1562L65.1936 304.314L77.9946 281.054L44.167 213.991V213.992Z" fill="#2C3E50"/>
<mask id="mask3_90_1193" style="mask-type:luminance" maskUnits="userSpaceOnUse" x="-1" y="213" width="46" height="92">
<path d="M44.897 213.644H-0.0429688V304.865H44.897V213.644Z" fill="white"/>
</mask>
<g mask="url(#mask3_90_1193)">
<path d="M20.7748 304.408H44.7856L-0.251789 214.086L-13.0527 237.345L20.7748 304.409V304.408Z" fill="#2C3E50"/>
</g>
<mask id="mask4_90_1193" style="mask-type:luminance" maskUnits="userSpaceOnUse" x="488" y="259" width="47" height="46">
<path d="M534.957 259.254H488.59V304.864H534.957V259.254Z" fill="white"/>
</mask>
<g mask="url(#mask4_90_1193)">
<path d="M489.059 304.394L512.537 259.268L535.222 304.394H489.059Z" fill="#2C3E50"/>
</g>
<mask id="mask5_90_1193" style="mask-type:luminance" maskUnits="userSpaceOnUse" x="522" y="213" width="13" height="92">
<path d="M534.957 213.644H522.117V304.865H534.957V213.644Z" fill="white"/>
</mask>
<g mask="url(#mask5_90_1193)">
<path d="M556.447 304.394H580.457L535.42 214.072L522.619 237.334L556.447 304.395V304.394Z" fill="#2C3E50"/>
</g>
<path d="M87.2207 408.177L110.699 363.048L133.384 408.177H87.2207Z" fill="#2C3E50"/>
<path d="M154.609 408.177H178.62L133.585 317.854L120.781 341.114L154.609 408.177V408.177Z" fill="#2C3E50"/>
<path d="M245.518 317.773L222.04 362.9L199.355 317.773H245.518Z" fill="#2C3E50"/>
<path d="M178.128 317.773H154.117L199.155 408.092L211.955 384.833L178.128 317.773Z" fill="#2C3E50"/>
<path d="M221.182 408.177L244.66 363.048L267.345 408.177H221.182Z" fill="#2C3E50"/>
<path d="M288.57 408.177H312.58L267.543 317.854L254.742 341.114L288.57 408.177V408.177Z" fill="#2C3E50"/>
<path d="M379.482 317.773L356 362.9L333.318 317.773H379.482Z" fill="#2C3E50"/>
<path d="M312.091 317.773H288.08L333.117 408.092L345.918 384.833L312.091 317.773Z" fill="#2C3E50"/>
<path d="M355.141 408.177L378.622 363.048L401.307 408.177H355.141Z" fill="#2C3E50"/>
<path d="M422.531 408.177H446.541L401.504 317.854L388.703 341.114L422.531 408.177V408.177Z" fill="#2C3E50"/>
<path d="M513.442 317.773L489.96 362.9L467.275 317.773H513.442Z" fill="#2C3E50"/>
<path d="M446.052 317.773H422.041L467.078 408.092L479.879 384.833L446.052 317.773Z" fill="#2C3E50"/>
<path d="M111.558 317.773L88.0791 362.9L65.3945 317.773H111.558Z" fill="#2C3E50"/>
<path d="M44.167 317.773H20.1562L65.1936 408.092L77.9946 384.833L44.167 317.773Z" fill="#2C3E50"/>
<mask id="mask6_90_1193" style="mask-type:luminance" maskUnits="userSpaceOnUse" x="-1" y="317" width="46" height="92">
<path d="M44.897 317.692H-0.0429688V408.201H44.897V317.692Z" fill="white"/>
</mask>
<g mask="url(#mask6_90_1193)">
<path d="M20.7748 408.188H44.7856L-0.251789 317.868L-13.0527 341.127L20.7748 408.188Z" fill="#2C3E50"/>
</g>
<mask id="mask7_90_1193" style="mask-type:luminance" maskUnits="userSpaceOnUse" x="488" y="362" width="47" height="47">
<path d="M534.957 362.591H488.59V408.201H534.957V362.591Z" fill="white"/>
</mask>
<g mask="url(#mask7_90_1193)">
<path d="M489.059 408.177L512.537 363.048L535.222 408.177H489.059Z" fill="#2C3E50"/>
</g>
<mask id="mask8_90_1193" style="mask-type:luminance" maskUnits="userSpaceOnUse" x="522" y="317" width="13" height="92">
<path d="M534.957 317.692H522.117V408.201H534.957V317.692Z" fill="white"/>
</mask>
<g mask="url(#mask8_90_1193)">
<path d="M556.447 408.177H580.457L535.42 317.854L522.619 341.114L556.447 408.177V408.177Z" fill="#2C3E50"/>
</g>
<path d="M87.2207 96.8333L110.699 51.707L133.384 96.8333H87.2207Z" fill="#2C3E50"/>
<path d="M154.609 96.833H178.62L133.585 6.51367L120.781 29.773L154.609 96.8336V96.833Z" fill="#2C3E50"/>
<path d="M245.518 6.43066L222.04 51.5596L199.355 6.43066H245.518Z" fill="#2C3E50"/>
<path d="M178.128 6.43022H154.117L199.155 96.7523L211.955 73.4929L178.128 6.43022Z" fill="#2C3E50"/>
<path d="M221.182 96.8333L244.66 51.707L267.345 96.8333H221.182Z" fill="#2C3E50"/>
<path d="M288.57 96.833H312.58L267.543 6.51367L254.742 29.773L288.57 96.8336V96.833Z" fill="#2C3E50"/>
<path d="M379.482 6.43066L356 51.5596L333.318 6.43066H379.482Z" fill="#2C3E50"/>
<path d="M312.091 6.43022H288.08L333.117 96.7523L345.918 73.4929L312.091 6.43022Z" fill="#2C3E50"/>
<path d="M355.141 96.8333L378.622 51.707L401.307 96.8333H355.141Z" fill="#2C3E50"/>
<path d="M422.531 96.833H446.541L401.504 6.51367L388.703 29.773L422.531 96.8336V96.833Z" fill="#2C3E50"/>
<path d="M513.442 6.43066L489.96 51.5596L467.275 6.43066H513.442Z" fill="#2C3E50"/>
<path d="M446.052 6.43022H422.041L467.078 96.7523L479.879 73.4929L446.052 6.43022Z" fill="#2C3E50"/>
<path d="M111.558 6.43066L88.0791 51.5596L65.3945 6.43066H111.558Z" fill="#2C3E50"/>
<path d="M44.167 6.43022H20.1562L65.1936 96.7523L77.9946 73.4929L44.167 6.43022Z" fill="#2C3E50"/>
<mask id="mask9_90_1193" style="mask-type:luminance" maskUnits="userSpaceOnUse" x="-1" y="6" width="46" height="92">
<path d="M44.897 6.25781H-0.0429688V97.4794H44.897V6.25781Z" fill="white"/>
</mask>
<g mask="url(#mask9_90_1193)">
<path d="M20.7748 96.8474H44.7856L-0.251789 6.52539L-13.0527 29.7847L20.7748 96.848V96.8474Z" fill="#2C3E50"/>
</g>
<mask id="mask10_90_1193" style="mask-type:luminance" maskUnits="userSpaceOnUse" x="488" y="51" width="47" height="47">
<path d="M534.957 51.1562H488.59V97.4798H534.957V51.1562Z" fill="white"/>
</mask>
<g mask="url(#mask10_90_1193)">
<path d="M489.059 96.8333L512.537 51.707L535.222 96.8333H489.059Z" fill="#2C3E50"/>
</g>
<mask id="mask11_90_1193" style="mask-type:luminance" maskUnits="userSpaceOnUse" x="522" y="6" width="13" height="92">
<path d="M534.957 6.25781H522.117V97.4794H534.957V6.25781Z" fill="white"/>
</mask>
<g mask="url(#mask11_90_1193)">
<path d="M556.447 96.833H580.457L535.42 6.51367L522.619 29.773L556.447 96.8336V96.833Z" fill="#2C3E50"/>
</g>
<path d="M87.2207 511.955L110.699 466.829L133.384 511.955H87.2207Z" fill="#2C3E50"/>
<path d="M154.609 511.955H178.62L133.585 421.633L120.781 444.895L154.609 511.955V511.955Z" fill="#2C3E50"/>
<path d="M245.518 421.553L222.04 466.682L199.355 421.553H245.518Z" fill="#2C3E50"/>
<path d="M178.128 421.552H154.117L199.155 511.874L211.955 488.615L178.128 421.552Z" fill="#2C3E50"/>
<path d="M221.182 511.955L244.66 466.829L267.345 511.955H221.182Z" fill="#2C3E50"/>
<path d="M288.57 511.955H312.58L267.543 421.633L254.742 444.895L288.57 511.955V511.955Z" fill="#2C3E50"/>
<path d="M379.482 421.553L356 466.682L333.318 421.553H379.482Z" fill="#2C3E50"/>
<path d="M312.091 421.552H288.08L333.117 511.874L345.918 488.615L312.091 421.552Z" fill="#2C3E50"/>
<path d="M355.141 511.955L378.622 466.829L401.307 511.955H355.141Z" fill="#2C3E50"/>
<path d="M422.531 511.955H446.541L401.504 421.633L388.703 444.895L422.531 511.955V511.955Z" fill="#2C3E50"/>
<path d="M513.442 421.553L489.96 466.682L467.275 421.553H513.442Z" fill="#2C3E50"/>
<path d="M446.052 421.552H422.041L467.078 511.874L479.879 488.615L446.052 421.552Z" fill="#2C3E50"/>
<path d="M111.558 421.553L88.0791 466.682L65.3945 421.553H111.558Z" fill="#2C3E50"/>
<path d="M44.167 421.552H20.1562L65.1936 511.874L77.9946 488.615L44.167 421.552Z" fill="#2C3E50"/>
<mask id="mask12_90_1193" style="mask-type:luminance" maskUnits="userSpaceOnUse" x="-1" y="421" width="46" height="92">
<path d="M44.897 421.029H-0.0429688V512.251H44.897V421.029Z" fill="white"/>
</mask>
<g mask="url(#mask12_90_1193)">
<path d="M20.7748 511.97H44.7856L-0.251789 421.647L-13.0527 444.907L20.7748 511.97V511.97Z" fill="#2C3E50"/>
</g>
<mask id="mask13_90_1193" style="mask-type:luminance" maskUnits="userSpaceOnUse" x="488" y="466" width="47" height="47">
<path d="M534.957 466.64H488.59V512.25H534.957V466.64Z" fill="white"/>
</mask>
<g mask="url(#mask13_90_1193)">
<path d="M489.059 511.955L512.537 466.829L535.222 511.955H489.059Z" fill="#2C3E50"/>
</g>
<mask id="mask14_90_1193" style="mask-type:luminance" maskUnits="userSpaceOnUse" x="522" y="421" width="13" height="92">
<path d="M534.957 421.029H522.117V512.251H534.957V421.029Z" fill="white"/>
</mask>
<g mask="url(#mask14_90_1193)">
<path d="M556.447 511.955H580.457L535.42 421.633L522.619 444.895L556.447 511.955V511.955Z" fill="#2C3E50"/>
</g>
</g>
<defs>
<clipPath id="clip0_90_1193">
<rect width="535" height="519" fill="white"/>
</clipPath>
</defs>
</svg>
